# xmcd
#
# Track frame offsets:
#  150
#  16328
#  27406
#  44170
#  67301
#  89237
#  104322
#  117938
#  130368
#  144386
#  156691
#  169853
#  180781
#  196030
#  208301
#
# Disc length: 2915 seconds
#
# Revision: 1
# Processed by: cddbd v1.5.1PL2 Copyright (c) Steve Scherf et al.
# Submitted via: Collectorz.com_Music_Collector 6.11
#
DISCID=e50b610f
DTITLE=Various Artist - Forever Blues [CD1)
DYEAR=2001
DGENRE=Blues
TTITLE0=Muddy Waters - Muddy Waters-Mannish Boy
TTITLE1=John Lee Hooker - John Lee Hooker-Boom Boom
TTITLE2=Robert Cray - Robert Cray-Who's Been Talking
TTITLE3=B.B. King - Bb King-Thrill Is Gone (Live)
TTITLE4=Luther Allison - Luther Allison-Sweet Home Chicago
TTITLE5=Albert King - Albert King-Born Under A Bad Sign
TTITLE6=Lightning Hopkins - Lightning Hopkins-Mojo Hand
TTITLE7=T Bone Walker - T Bone Walker-Stormy Monday Blue
TTITLE8=Memphis Slim - Memphis Slim-Slims' Blues
TTITLE9=Elmore James - Elmore James-Dust My Broom
TTITLE10=Howlin' Wolf - Howlin Wolf-Everybody's In The Mood
TTITLE11=Ray Charles - Ray Charles-I Choose To Sing The Blues
TTITLE12=Big Joe Williams - Big Joe Williams and Sonny Boy Williamson-Baby Please Don't Go
TTITLE13=T Bone Walker - T Bone Walker-Glamor Girl
TTITLE14=Jimmy Reed - Jimmy Reed-Baby What You Want Me To Do
EXTD=
EXTT0=
EXTT1=
EXTT2=
EXTT3=
EXTT4=
EXTT5=
EXTT6=
EXTT7=
EXTT8=
EXTT9=
EXTT10=
EXTT11=
EXTT12=
EXTT13=
EXTT14=
PLAYORDER=
